<?xml version="1.0" standalone="no"?><!DOCTYPE svg PUBLIC "-//W3C//DTD SVG 1.1//EN" "http://www.w3.org/Graphics/SVG/1.1/DTD/svg11.dtd"><svg class="icon" width="200px" height="200.00px" viewBox="0 0 1024 1024" version="1.1" xmlns="http://www.w3.org/2000/svg"><path d="M457.362286 988.16c123.428571 0 223.707429-100.297143 223.707428-223.725714 0-65.152-26.989714-122.148571-78.006857-168.429715-9.417143-8.576-11.556571-13.293714-11.556571-26.148571l0.859428-384.859429c0-89.563429-54.436571-149.138286-135.003428-149.138285-81.005714 0-135.442286 59.574857-135.442286 149.138285l0.438857 384.859429c0 12.854857-2.139429 17.572571-11.154286 26.148571-51.419429 46.281143-77.988571 103.277714-77.988571 168.411429 0 123.428571 99.84 223.725714 224.146286 223.725714z m0-62.171429c-89.142857 0-161.572571-72.850286-161.572572-161.554285 0-53.577143 25.289143-101.997714 70.710857-132.425143 13.293714-9.014857 18.432-17.152 18.432-34.724572V187.574857c0-53.997714 29.568-88.722286 72.411429-88.722286 42.441143 0 71.588571 34.724571 71.588571 88.722286v409.709714c0 17.572571 5.138286 25.709714 18.432 34.706286 45.421714 30.445714 70.710857 78.866286 70.710858 132.443429 0 88.704-72.009143 161.572571-160.731429 161.572571z m214.710857-732.854857h93.44a24.685714 24.685714 0 0 0 25.270857-24.850285 24.685714 24.685714 0 0 0-25.289143-24.868572h-93.44a24.685714 24.685714 0 0 0-25.270857 24.868572c0 13.293714 10.294857 24.868571 25.289143 24.868571z m0 120.429715h93.44a24.685714 24.685714 0 0 0 25.270857-24.850286 24.685714 24.685714 0 0 0-25.289143-24.868572h-93.44a24.685714 24.685714 0 0 0-25.270857 24.868572c0 13.293714 10.294857 24.868571 25.289143 24.868571zM456.923429 868.150857a103.625143 103.625143 0 0 0 103.716571-104.155428c0-40.283429-22.710857-73.289143-55.716571-91.282286-13.714286-7.277714-18.432-12.434286-18.432-33.426286V411.721143c0-22.308571-12.854857-35.584-29.568-35.584-16.274286 0-29.568 13.293714-29.568 35.584V639.268571c0 20.992-4.717714 26.148571-18.432 33.426286-32.987429 17.993143-55.716571 51.017143-55.716572 91.282286a103.625143 103.625143 0 0 0 103.716572 104.155428z m215.149714-434.157714h93.44a24.685714 24.685714 0 0 0 25.270857-24.850286 25.051429 25.051429 0 0 0-25.289143-25.289143h-93.44a25.051429 25.051429 0 0 0-25.270857 25.289143c0 13.293714 10.294857 24.868571 25.289143 24.868572z m0 120.429714h93.44a25.051429 25.051429 0 0 0 25.270857-25.289143 24.685714 24.685714 0 0 0-25.289143-24.850285h-93.44a24.685714 24.685714 0 0 0-25.270857 24.868571 25.051429 25.051429 0 0 0 25.289143 25.270857z" fill="#007AFF" /></svg>