<?xml version="1.0" standalone="no"?><!DOCTYPE svg PUBLIC "-//W3C//DTD SVG 1.1//EN" "http://www.w3.org/Graphics/SVG/1.1/DTD/svg11.dtd"><svg class="icon" width="200px" height="200.00px" viewBox="0 0 1024 1024" version="1.1" xmlns="http://www.w3.org/2000/svg"><path d="M118 788c-65.066 0-118 52.934-118 118s52.934 118 118 118c22.092 0 40-17.908 40-40s-17.908-40-40-40c-20.954 0-38-17.046-38-38s17.046-38 38-38 38 17.046 38 38c0 22.092 17.908 40 40 40s40-17.908 40-40c0-65.066-52.934-118-118-118zM364 158h620c22.092 0 40-17.908 40-40s-17.908-40-40-40H364c-22.092 0-40 17.908-40 40s17.908 40 40 40zM118 394c-65.066 0-118 52.934-118 118s52.934 118 118 118c22.092 0 40-17.908 40-40s-17.908-40-40-40c-20.954 0-38-17.046-38-38s17.046-38 38-38 38 17.046 38 38c0 22.092 17.908 40 40 40s40-17.908 40-40c0-65.066-52.934-118-118-118zM984 472H364c-22.092 0-40 17.908-40 40s17.908 40 40 40h620c22.092 0 40-17.908 40-40s-17.908-40-40-40zM984 866H364c-22.092 0-40 17.908-40 40s17.908 40 40 40h620c22.092 0 40-17.908 40-40s-17.908-40-40-40zM118 0C52.934 0 0 52.934 0 118s52.934 118 118 118c22.092 0 40-17.908 40-40s-17.908-40-40-40c-20.954 0-38-17.046-38-38s17.046-38 38-38 38 17.046 38 38c0 22.092 17.908 40 40 40s40-17.908 40-40c0-65.066-52.934-118-118-118z" fill="#007AFF" /></svg>